<?xml version="1.0" encoding="UTF-8"?>
<svg version="1.1" xmlns="http://www.w3.org/2000/svg" width="499" height="499">
<path d="M0 0 C0.33 0 0.66 0 1 0 C1.14695312 1.72283203 1.14695312 1.72283203 1.296875 3.48046875 C3.96210346 32.21399232 17.1983655 53.71174689 37 74 C37.51916992 74.53431641 38.03833984 75.06863281 38.57324219 75.61914062 C43.83177176 81.011334 49.15755671 86.28372091 54.890625 91.17578125 C58.08669731 93.93979193 61.1862049 96.80822943 64.29248047 99.67211914 C66.87570797 102.05349407 69.46639679 104.42419192 72.0859375 106.765625 C96.43273824 128.59782422 115.23998855 154.96247124 117.20507812 188.5 C117.30320044 192.1485482 117.32914953 195.78768445 117.3125 199.4375 C117.30686035 200.7479126 117.3012207 202.0583252 117.29541016 203.40844727 C116.90550288 235.01602936 109.27637955 276.0438213 88 301 C87.34 301 86.68 301 86 301 C85.87995605 300.32646484 85.75991211 299.65292969 85.63623047 298.95898438 C79.0343696 262.51522186 63.64607003 232.81840987 38 206 C37.12601562 205.07316406 36.25203125 204.14632812 35.3515625 203.19140625 C25.50923881 193.01715669 14.24062865 184.79316171 2.79785156 176.52734375 C0.38912041 174.78402945 -1.89356918 173.10643082 -4 171 C1.65537186 170.75215502 6.48531301 171.59303296 11.9375 173.0625 C12.76725342 173.28510498 13.59700684 173.50770996 14.4519043 173.73706055 C32.4649098 178.7835927 48.97254638 187.63293885 63 200 C62.33548031 186.26659305 54.78725297 177.79354515 46 168 C44.81277344 166.66388672 44.81277344 166.66388672 43.6015625 165.30078125 C41.41354693 162.85557788 39.20757793 160.42753587 37 158 C35.6249602 156.45836884 34.24996139 154.91670111 32.875 153.375 C29.46708923 149.57846783 25.98583321 145.85921322 22.47851562 142.1550293 C16.01575492 135.31984642 9.79044992 128.42239335 4 121 C3.51321777 120.3910791 3.02643555 119.7821582 2.52490234 119.15478516 C-17.84385204 93.67372718 -33.34256646 64.59165939 -31 31 C-30.22058061 25.21021973 -28.84623956 19.53871868 -27 14 C-26.34 14 -25.68 14 -25 14 C-24.78085938 15.0415625 -24.56171875 16.083125 -24.3359375 17.15625 C-19.62244078 38.78183405 -11.18216311 58.17966839 2 76 C1.73445313 74.97261719 1.46890625 73.94523437 1.1953125 72.88671875 C-4.75678418 49.63836381 -9.38782147 23.04283451 0 0 Z " fill="#24AFD0" transform="translate(165,110)"/>
<path d="M0 0 C0.99 0.495 0.99 0.495 2 1 C3.00677862 4.93499095 3.45888749 8.97757071 4 13 C4.11472656 13.8146875 4.22945313 14.629375 4.34765625 15.46875 C6.68680597 35.76334473 5.17801439 56.50201132 -1 76 C11.47827972 58.20310926 22.04863911 39.04216769 24.578125 17.08984375 C24.71734375 16.40019531 24.8565625 15.71054688 25 15 C25.66 14.67 26.32 14.34 27 14 C29.68520571 20.68179096 31.70829432 26.78345525 32 34 C32.05994141 35.11568359 32.05994141 35.11568359 32.12109375 36.25390625 C33.15812685 73.28208828 12.17863584 105.53443683 -11.9453125 131.76171875 C-13.88102603 133.87039527 -15.75819976 136.01786328 -17.625 138.1875 C-19.83185812 140.72487835 -22.10367239 143.1409486 -24.5 145.5 C-27.44020591 148.39487234 -30.14569943 151.42445436 -32.8359375 154.55078125 C-36.2977246 158.46872441 -39.88589664 162.26968799 -43.46923828 166.07641602 C-45.70464444 168.46388835 -47.83642245 170.77562372 -49.765625 173.421875 C-50.17296875 173.94265625 -50.5803125 174.4634375 -51 175 C-51.66 175 -52.32 175 -53 175 C-53.30292969 173.97261719 -53.60585938 172.94523438 -53.91796875 171.88671875 C-56.39570756 163.62625564 -59.03584574 155.68937319 -63 148 C-63.56332031 146.90171875 -64.12664062 145.8034375 -64.70703125 144.671875 C-68.5657712 137.43623567 -72.9474519 131.24120748 -78.58251953 125.26220703 C-79.97265625 123.7421875 -79.97265625 123.7421875 -82 121 C-81.67743412 117.71202729 -80.43425265 116.06536714 -78.12109375 113.79296875 C-77.53360352 113.20990967 -76.94611328 112.62685059 -76.34082031 112.02612305 C-75.71272461 111.41937744 -75.08462891 110.81263184 -74.4375 110.1875 C-73.79780273 109.55948486 -73.15810547 108.93146973 -72.49902344 108.28442383 C-68.73736982 104.61390109 -64.92170208 101.03113644 -60.9140625 97.62890625 C-57.7385033 94.92644057 -54.66385197 92.11194421 -51.5703125 89.31640625 C-49.88379387 87.796489 -48.19125741 86.28321724 -46.4921875 84.77734375 C-19.83323449 61.08513943 -4.15676273 35.79706254 0 0 Z " fill="#1DD6DF" transform="translate(337,109)"/>
<path d="M0 0 C0.75861328 0.22461914 1.51722656 0.44923828 2.29882812 0.68066406 C30.8115225 9.34534169 57.95172731 24.20218799 81 43 C81.97195313 43.76828125 82.94390625 44.5365625 83.9453125 45.328125 C99.55944375 58.02708596 114.32108479 72.57313662 126 89 C126.43393066 89.59490234 126.86786133 90.18980469 127.31494141 90.80273438 C150.09932587 122.09754016 165.34512855 157.84940058 172 196 C172.16226074 196.90089355 172.32452148 197.80178711 172.49169922 198.72998047 C178.50195086 233.47035141 175.93314875 270.04514603 167 304 C166.77973145 304.84369141 166.55946289 305.68738281 166.33251953 306.55664062 C159.45634819 332.34353156 147.83477044 358.44711801 132 380 C131.56751953 380.59796387 131.13503906 381.19592773 130.68945312 381.81201172 C116.89865984 400.84765745 101.6504413 418.55582844 83 433 C82.01902344 433.78632813 81.03804688 434.57265625 80.02734375 435.3828125 C46.19887138 462.30740653 5.57352778 479.23961448 -37 486 C-37.71639648 486.11859375 -38.43279297 486.2371875 -39.17089844 486.359375 C-64.30352889 490.3407818 -92.04483404 489.49469721 -117 485 C-117.92280762 484.83902832 -118.84561523 484.67805664 -119.79638672 484.51220703 C-180.15644995 473.65052582 -237.95926688 438.98614241 -274 389 C-274.82777507 387.89979678 -275.65722712 386.80085344 -276.48828125 385.703125 C-316.0662503 332.74798692 -330.38085993 265.09275251 -321.22265625 200.23046875 C-317.90219958 178.69011787 -311.7911751 157.92829836 -303 138 C-302.65211426 137.20400391 -302.30422852 136.40800781 -301.94580078 135.58789062 C-291.91863694 112.88106834 -278.34812138 92.6079182 -262 74 C-261.23816406 73.12601562 -260.47632813 72.25203125 -259.69140625 71.3515625 C-250.84679595 61.35604926 -241.5079805 52.23365047 -231 44 C-229.55753906 42.83210938 -229.55753906 42.83210938 -228.0859375 41.640625 C-164.21227557 -9.13489359 -77.56967608 -23.17987387 0 0 Z M-241.296875 55.484375 C-243.50616012 57.54041491 -245.74998383 59.50100272 -248.0625 61.4375 C-289.44809409 97.62860595 -314.15423827 155.55863215 -321 209 C-321.13099342 210.0198423 -321.13099342 210.0198423 -321.26463318 211.06028748 C-321.90606519 216.40140951 -322.17271916 221.66196602 -322.203125 227.0390625 C-322.21013931 227.87433975 -322.21715363 228.709617 -322.22438049 229.57020569 C-322.24180081 232.25519256 -322.2482341 234.93995866 -322.25 237.625 C-322.25067474 238.54350739 -322.25134949 239.46201477 -322.25204468 240.40835571 C-322.23562164 254.48044283 -321.70191643 268.15234291 -319 282 C-318.83902832 282.86898926 -318.67805664 283.73797852 -318.51220703 284.63330078 C-309.33487961 333.07654204 -286.05875099 376.62877306 -252 412 C-251.24734863 412.78552246 -251.24734863 412.78552246 -250.47949219 413.58691406 C-243.72091194 420.60627554 -236.71610844 427.02527012 -229 433 C-228.43361816 433.44811035 -227.86723633 433.8962207 -227.28369141 434.35791016 C-176.92133475 474.13892163 -111.71482509 492.6621446 -47.90942383 486.05053711 C12.30262883 478.88394079 72.77839331 450.30676245 112 403 C112.7940625 402.10539062 113.588125 401.21078125 114.40625 400.2890625 C157.37074955 351.62012545 177.58196102 285.89333737 173.79785156 221.56347656 C169.92365339 171.14042188 151.48361644 121.96888167 119 83 C118.54189941 82.44038574 118.08379883 81.88077148 117.61181641 81.30419922 C106.4190314 67.64487765 94.10484027 54.67658048 80 44 C79.46117187 43.58476074 78.92234375 43.16952148 78.3671875 42.74169922 C68.37111623 35.05693927 57.91104678 28.31000296 47 22 C46.31212402 21.60039063 45.62424805 21.20078125 44.91552734 20.7890625 C17.58900277 5.11001687 -12.9958394 -3.48260381 -44 -8 C-44.77625732 -8.1134375 -45.55251465 -8.226875 -46.35229492 -8.34375 C-116.32899628 -16.88028257 -190.00734853 7.31340212 -241.296875 55.484375 Z " fill="#28E2D1" transform="translate(324,11)"/>
<path d="M0 0 C1.11608696 3.34826087 0.9122431 4.03104539 -0.15234375 7.25390625 C-0.5685498 8.52137695 -0.5685498 8.52137695 -0.99316406 9.81445312 C-1.30479492 10.72130859 -1.61642578 11.62816406 -1.9375 12.5625 C-2.2581543 13.50416016 -2.57880859 14.44582031 -2.90917969 15.41601562 C-10.15531936 36.24954402 -19.97982776 57.14173097 -33 75 C-33.43393066 75.60086426 -33.86786133 76.20172852 -34.31494141 76.82080078 C-48.1049782 95.85247077 -63.35258585 113.55817287 -82 128 C-82.98097656 128.78632813 -83.96195312 129.57265625 -84.97265625 130.3828125 C-118.80112862 157.30740653 -159.42647222 174.23961448 -202 181 C-202.71639648 181.11859375 -203.43279297 181.2371875 -204.17089844 181.359375 C-229.30352889 185.3407818 -257.04483404 184.49469721 -282 180 C-282.92280762 179.83902832 -283.84561523 179.67805664 -284.79638672 179.51220703 C-345.15644995 168.65052582 -402.95926688 133.98614241 -439 84 C-439.82777507 82.89979678 -440.65722712 81.80085344 -441.48828125 80.703125 C-455.95922254 61.34107302 -479 27.82249013 -479 3 C-478.34 3 -477.68 3 -477 3 C-476.8047876 3.59200195 -476.6095752 4.18400391 -476.40844727 4.79394531 C-463.4954289 43.65655205 -444.44427865 77.42436124 -416 107 C-415.53062012 107.49129395 -415.06124023 107.98258789 -414.57763672 108.48876953 C-408.12183193 115.21592163 -401.35928363 121.28240272 -394 127 C-393.43216797 127.44956055 -392.86433594 127.89912109 -392.27929688 128.36230469 C-341.91738057 168.14013912 -276.71238316 186.66189156 -212.90942383 180.05053711 C-153.25143854 172.94988734 -92.96562345 144.84254518 -54 98 C-53.20464844 97.10410156 -52.40929687 96.20820313 -51.58984375 95.28515625 C-28.00989978 68.5704566 -12.25873223 36.79029661 -1.70507812 2.99926758 C-1 1 -1 1 0 0 Z " fill="#592472" transform="translate(489,316)"/>
<path d="M0 0 C-3.10737659 3.38848401 -6.54655075 5.74403547 -10.4375 8.125 C-26.01377632 17.92805097 -40.05954145 29.32412089 -50.94140625 44.25 C-52.53413348 46.37766597 -54.05346671 48.20894062 -56 50 C-56.0449943 46.15048767 -56.05975847 42.30653022 -56.01171875 38.45703125 C-55.9795585 35.6445268 -56.07307414 32.95260405 -56.26953125 30.13671875 C-56.38128178 26.34961734 -56.25005922 23.58439921 -55 20 C-50.88046575 15.87432636 -46.2240563 13.48705073 -41 11 C-40.35482422 10.67418945 -39.70964844 10.34837891 -39.04492188 10.01269531 C-26.84996296 3.87829872 -13.75340051 -0.38374443 0 0 Z " fill="#249BCD" transform="translate(342,281)"/>
<path d="M0 0 C0 0.99 0 1.98 0 3 C-1.93024686 4.5339109 -3.80913911 5.86085815 -5.875 7.1875 C-7.07867809 7.9907164 -8.28048413 8.79674479 -9.48046875 9.60546875 C-10.07907715 10.00813965 -10.67768555 10.41081055 -11.29443359 10.82568359 C-18.14666419 15.5435807 -24.35673225 21.1088001 -30.48828125 26.7109375 C-32.1799032 28.25260229 -33.88605651 29.77845444 -35.60546875 31.2890625 C-40.84363171 35.90118177 -45.54327946 40.63666608 -50 46 C-50.73605469 46.84820312 -51.47210938 47.69640625 -52.23046875 48.5703125 C-84.04827626 85.69951872 -103.79917772 131.59334525 -110 180 C-110.13099342 181.0198423 -110.13099342 181.0198423 -110.26463318 182.06028748 C-110.90606519 187.40140951 -111.17271916 192.66196602 -111.203125 198.0390625 C-111.21013931 198.87433975 -111.21715363 199.709617 -111.22438049 200.57020569 C-111.24180081 203.25519256 -111.2482341 205.93995866 -111.25 208.625 C-111.25067474 209.54350739 -111.25134949 210.46201477 -111.25204468 211.40835571 C-111.22932205 230.87825095 -109.32131231 249.09359546 -104.53833008 268.00073242 C-104.3245874 268.86029541 -104.11084473 269.7198584 -103.890625 270.60546875 C-103.69500977 271.35981201 -103.49939453 272.11415527 -103.29785156 272.89135742 C-102.96921344 275.21795371 -103.28492829 276.77969604 -104 279 C-106.1880157 272.88069386 -107.83054642 266.81570831 -109.0625 260.4375 C-109.31737183 259.13377441 -109.31737183 259.13377441 -109.57739258 257.80371094 C-119.10575141 207.83357563 -113.54588531 155.57449408 -93 109 C-92.65211426 108.20400391 -92.30422852 107.40800781 -91.94580078 106.58789062 C-81.91863694 83.88106834 -68.34812138 63.6079182 -52 45 C-51.23816406 44.12601563 -50.47632813 43.25203125 -49.69140625 42.3515625 C-40.84966283 32.35928919 -31.51696015 23.21770571 -21 15 C-20.46552246 14.57799316 -19.93104492 14.15598633 -19.38037109 13.72119141 C-13.12831 8.78745629 -6.87763549 4.04566793 0 0 Z " fill="#1FD0DB" transform="translate(114,40)"/>
<path d="M0 0 C1.11608696 3.34826087 0.9122431 4.03104539 -0.15234375 7.25390625 C-0.5685498 8.52137695 -0.5685498 8.52137695 -0.99316406 9.81445312 C-1.30479492 10.72130859 -1.61642578 11.62816406 -1.9375 12.5625 C-2.41848145 13.97499023 -2.41848145 13.97499023 -2.90917969 15.41601562 C-10.15531936 36.24954402 -19.97982776 57.14173097 -33 75 C-33.43393066 75.60086426 -33.86786133 76.20172852 -34.31494141 76.82080078 C-48.1049782 95.85247077 -63.35258585 113.55817287 -82 128 C-82.98097656 128.78632813 -83.96195312 129.57265625 -84.97265625 130.3828125 C-104.1857033 145.67476794 -125.57503516 157.42810851 -148.3125 166.625 C-149.33150391 167.03886963 -150.35050781 167.45273926 -151.40039062 167.87915039 C-157.52869572 170.27825862 -163.49952414 171.9619963 -170 173 C-167.04163068 170.04163068 -163.27391899 169.3323826 -159.375 168.0625 C-126.95974929 157.03694469 -98.5751302 139.55684742 -73 117 C-72.46858398 116.53174805 -71.93716797 116.06349609 -71.38964844 115.58105469 C-65.16132339 110.06023726 -59.32935499 104.40668696 -54 98 C-53.20464844 97.10410156 -52.40929687 96.20820313 -51.58984375 95.28515625 C-28.00989978 68.5704566 -12.25873223 36.79029661 -1.70507812 2.99926758 C-1 1 -1 1 0 0 Z " fill="#552D79" transform="translate(489,316)"/>
<path d="M0 0 C0.66 0 1.32 0 2 0 C2.1952124 0.59200195 2.3904248 1.18400391 2.59155273 1.79394531 C15.5045711 40.65655205 34.55572135 74.42436124 63 104 C63.46937988 104.49129395 63.93875977 104.98258789 64.42236328 105.48876953 C77.46799804 119.08273219 92.67885407 130.12436791 108 141 C107.34 141.33 106.68 141.66 106 142 C96.64746886 135.72195212 87.53413601 129.37833176 79 122 C78.25363281 121.36449219 77.50726563 120.72898437 76.73828125 120.07421875 C63.80207039 108.76327037 51.35643633 96.56776244 41.21484375 82.66357422 C39.99429397 80.99218631 38.74897191 79.34162497 37.5 77.69140625 C23.03852896 58.32200473 0 24.82387407 0 0 Z " fill="#3D62A2" transform="translate(10,319)"/>
<path d="M0 0 C1.11608696 3.34826087 0.9122431 4.03104539 -0.15234375 7.25390625 C-0.42981445 8.09888672 -0.70728516 8.94386719 -0.99316406 9.81445312 C-1.46061035 11.17473633 -1.46061035 11.17473633 -1.9375 12.5625 C-2.2581543 13.50416016 -2.57880859 14.44582031 -2.90917969 15.41601562 C-10.15434114 36.24673151 -19.97574012 57.14757868 -33 75 C-33.4552002 75.62745117 -33.91040039 76.25490234 -34.37939453 76.90136719 C-40.22481275 84.9300139 -46.17098507 92.7692783 -53 100 C-53.66 99.67 -54.32 99.34 -55 99 C-54.28457031 98.20980469 -53.56914062 97.41960937 -52.83203125 96.60546875 C-28.67089198 69.45291125 -12.4804055 37.50005721 -1.70507812 2.99926758 C-1 1 -1 1 0 0 Z " fill="#3574B0" transform="translate(489,316)"/>
<path d="M0 0 C0 4.17641828 -2.28705708 6.27749776 -4.75 9.4375 C-18.30256818 27.44861541 -29.39802042 47.76430624 -37 69 C-37.66 69 -38.32 69 -39 69 C-37.0308738 61.61977906 -34.327769 54.86737447 -31 48 C-30.51797119 47.00105713 -30.03594238 46.00211426 -29.53930664 44.97290039 C-21.94873072 29.51700445 -12.66926745 11.94778297 0 0 Z " fill="#22DDDA" transform="translate(55,94)"/>
<path d="M0 0 C0 3 0 3 -1.29418945 4.66650391 C-1.89448975 5.26382324 -2.49479004 5.86114258 -3.11328125 6.4765625 C-3.7786792 7.14284668 -4.44407715 7.80913086 -5.12963867 8.49560547 C-5.84998291 9.19830566 -6.57032715 9.90100586 -7.3125 10.625 C-8.4113855 11.7080542 -8.4113855 11.7080542 -9.5324707 12.81298828 C-15.10203859 18.24751783 -20.81840542 23.26666472 -27 28 C-28.14101041 28.88491994 -29.28161398 29.77036464 -30.421875 30.65625 C-34.92038495 34.14068801 -39.44121297 37.59464101 -44 41 C-44.66 40.67 -45.32 40.34 -46 40 C-42.25990936 36.69480362 -38.45408273 33.56327044 -34.46630859 30.55932617 C-28.23185647 25.8590978 -22.41869895 20.8759468 -16.72265625 15.5390625 C-14.39573269 13.3690477 -12.03513034 11.26377927 -9.625 9.1875 C-6.25522935 6.26891203 -3.11280691 3.19062709 0 0 Z " fill="#4A468C" transform="translate(434,416)"/>
</svg>
